<?xml version="1.0" encoding="utf-8"?>
<!-- Generator: Adobe Illustrator 21.0.2, SVG Export Plug-In . SVG Version: 6.00 Build 0)  -->
<svg version="1.1" id="Layer_1" xmlns="http://www.w3.org/2000/svg" xmlns:xlink="http://www.w3.org/1999/xlink" x="0px" y="0px"
	 viewBox="0 0 170.2 190.5" style="enable-background:new 0 0 170.2 190.5;" xml:space="preserve">
<style type="text/css">
	.st0{fill:#0000FF;}
</style>
<title>process-icons</title>
<g>
	<path class="st0" d="M170.2,45V0H0v45l60.6,60.6v23L42.1,138l13.6,16.2l-4.2,20.7l21.1-0.5l13.6,16.2l12.7-16.8l21.1-0.5l-5.2-20.4
		l12.7-16.8l-18-8.1v-22L170.2,45z M152.7,9.2l-18.5,18.5H35.9L17.4,9.2L152.7,9.2z M124.9,37.1L85.1,76.9L45.2,37.1H124.9z
		 M9.3,41.4V14.1l82.4,82.4H64.4L9.3,41.4z M109.1,138.6l2.9,1.2l-8.1,10.7l3.3,13l-13.4,0.3l-8.1,10.7l-8.6-10.2l-13.4,0.3
		l2.6-13.1l-8.6-10.2l2.7-1.4l9.2-4.7l2.6-13.1l12.2,5.5l11.9-6.1l3.3,13L109.1,138.6z M105.8,96.4h-1.2L91.6,83.4L160.9,14l0,27.3
		L105.8,96.4z"/>
</g>
</svg>
