<?xml version="1.0" encoding="utf-8"?>
<!-- Generator: Adobe Illustrator 21.0.2, SVG Export Plug-In . SVG Version: 6.00 Build 0)  -->
<svg version="1.1" id="Layer_1" xmlns="http://www.w3.org/2000/svg" xmlns:xlink="http://www.w3.org/1999/xlink" x="0px" y="0px"
	 viewBox="0 0 202.4 201.5" style="enable-background:new 0 0 202.4 201.5;" xml:space="preserve">
<style type="text/css">
	.st0{fill:#0000FF;}
</style>
<title>process-icons</title>
<g id="d124fd7a-44dd-4127-a0c5-69b67cb07e80">
	<path class="st0" d="M167.6,129.4v0.4C167.6,129.7,167.7,129.6,167.6,129.4L167.6,129.4z"/>
	<path class="st0" d="M71.9,57.7c0,6.5,0,13,0,19.5c0.1,2.1-0.3,4.2-1,6.1c-1.3,3.4-4.5,5.7-8.2,6c-2.4,0.3-4.8,0.3-7.1-0.3
		c-3.5-0.8-6.3-3.5-7.1-7c-0.4-1.4-0.6-2.9-0.6-4.4c0-13.1,0-26.3,0-39.4c-0.1-2.3,0.4-4.6,1.3-6.7c1.1-2.8,3.7-4.8,6.6-5.3
		c2.7-0.5,5.5-0.5,8.2,0c3.3,0.5,6,2.9,7,6.1c0.7,2,1,4.1,0.9,6.2C71.9,44.8,71.9,51.3,71.9,57.7z M58.9,57.4c0,6.9,0,13.9,0,20.8
		c0,0.4,0,0.7,0.1,1.1s0.5,0.7,0.9,0.7s0.8-0.3,0.9-0.7c0.1-0.4,0.1-0.8,0.1-1.2c0-13.7,0-27.3,0-41c0-0.4-0.1-0.8-0.1-1.2
		c-0.1-0.6-0.5-0.8-1.1-0.7c-0.5,0-0.8,0.4-0.8,0.8l0,0c0,0.3,0,0.7,0,1C58.9,43.7,58.9,50.6,58.9,57.4L58.9,57.4z"/>
	<path class="st0" d="M35.7,39.7h-4.4v-8.8c3.1,0,5.4-1.1,5.8-4.5h9v62.4H35.7V39.7z"/>
	<path class="st0" d="M136.4,110.2c0,6.5,0,13,0,19.5c0.1,2.1-0.3,4.2-1,6.1c-1.3,3.4-4.5,5.7-8.2,6c-2.4,0.3-4.8,0.3-7.1-0.3
		c-3.5-0.8-6.3-3.5-7.1-7c-0.4-1.4-0.6-2.9-0.6-4.4c0-13.2,0-26.3,0-39.5c-0.1-2.3,0.4-4.6,1.3-6.7c1.1-2.8,3.7-4.8,6.6-5.3
		c2.7-0.5,5.5-0.5,8.2,0c3.3,0.5,6,2.9,7,6.1c0.7,2,1,4.1,1,6.2C136.4,97.3,136.4,103.7,136.4,110.2z M123.4,109.9
		c0,6.9,0,13.9,0,20.8c0,0.4,0,0.7,0.1,1.1c0.1,0.4,0.5,0.7,0.9,0.7s0.8-0.3,0.9-0.7s0.1-0.8,0.1-1.2c0-13.7,0-27.3,0-41
		c0-0.4-0.1-0.8-0.1-1.2c-0.1-0.6-0.5-0.8-1.1-0.7c-0.5,0-0.8,0.4-0.8,0.8l0,0c0,0.3,0,0.7,0,1C123.4,96.2,123.4,103,123.4,109.9z"
		/>
	<path class="st0" d="M100.1,92.2h-4.4v-8.8c3.1,0,5.4-1.1,5.8-4.5h9v62.4h-10.4V92.2z"/>
	
		<rect x="30.7" y="78.5" transform="matrix(0.4242 -0.9056 0.9056 0.4242 -28.3609 123.3873)" class="st0" width="104.2" height="11"/>
	<path class="st0" d="M193.9,163.2c1.1-6.6,1.7-13.3,1.8-20v-0.1l-1.8-12.2c0-0.1-1.3-9.2-1.8-12.6c-0.6-3.5-10.6-15.6-11.8-17
		l-0.2-0.2l-12.6-5.6V0H0v167.6h108l13,3.5l6,7.2l0.2,0.2c10,7.6,19.4,12.8,28,15.4l10.5,0.8l6.7,6.7l1.1-0.4
		c6.4-2.3,12.2-5.9,17-10.7c4.9-5.1,8.8-11.1,11.4-17.6l0.5-1.2L193.9,163.2z M11,156.6V11h145.6l0,0v84.1
		c-2.5,5.6-3.2,9.9-2.3,13.1c0.5,1.7,1.3,3.3,2.3,4.8v1.8v41.8H11z M185.5,184.3c-3.2,3.2-6.9,5.9-11,7.9l-4.6-4.6l-12.1-1.1
		c-7.9-2.6-16.3-7.2-25.2-13.7l-4.3-5.1h39.3v-18.4l6-0.7l-0.2-1.8c-0.7-6.7,0-13.4,2-19.8c1.3-3.6,0.5-7.7-2.1-10.6l-0.2-0.2
		l-0.3-0.1c-0.3-0.1-1.5-0.7-2.5-1.1s-1.9-0.9-2.4-1.1c-1.2-0.5-2.3-1.1-3.3-1.8c-1.8-1.3-3.2-3.1-3.8-5.3c-0.4-1.6-0.3-3.4,0.3-5
		l15.8,6.5l7.6,11.7l3.2,22c-0.2,7.8-0.8,15.5-1.8,23.2l-0.1,0.9l7.5,7.5C191.1,177.4,188.6,181,185.5,184.3z"/>
</g>
</svg>
